<svg xmlns="http://www.w3.org/2000/svg" viewBox="0 0 320 400" fill="none">
  <defs>
    <linearGradient id="bg" x1="42" x2="286" y1="24" y2="372" gradientUnits="userSpaceOnUse">
      <stop stop-color="#FBF7F1"/>
      <stop offset="1" stop-color="#F1E8DD"/>
    </linearGradient>
    <radialGradient id="glow" cx="0" cy="0" r="1" gradientTransform="matrix(0 160 -160 0 164 118)" gradientUnits="userSpaceOnUse">
      <stop stop-color="#FFFFFF" stop-opacity=".92"/>
      <stop offset="1" stop-color="#FFFFFF" stop-opacity="0"/>
    </radialGradient>
    <linearGradient id="bunTop" x1="66" x2="140" y1="212" y2="278" gradientUnits="userSpaceOnUse">
      <stop stop-color="#D99442"/>
      <stop offset="1" stop-color="#B96D28"/>
    </linearGradient>
    <linearGradient id="bunBottom" x1="74" x2="142" y1="278" y2="320" gradientUnits="userSpaceOnUse">
      <stop stop-color="#F3CC82"/>
      <stop offset="1" stop-color="#D9AB57"/>
    </linearGradient>
    <linearGradient id="patty" x1="74" x2="146" y1="258" y2="301" gradientUnits="userSpaceOnUse">
      <stop stop-color="#4E2412"/>
      <stop offset="1" stop-color="#24110C"/>
    </linearGradient>
    <linearGradient id="fries" x1="185" x2="258" y1="126" y2="224" gradientUnits="userSpaceOnUse">
      <stop stop-color="#FFD36D"/>
      <stop offset="1" stop-color="#F0A92B"/>
    </linearGradient>
    <linearGradient id="bucket" x1="186" x2="254" y1="152" y2="250" gradientUnits="userSpaceOnUse">
      <stop stop-color="#B0B0B3"/>
      <stop offset="1" stop-color="#76777B"/>
    </linearGradient>
    <filter id="shadow" x="32" y="96" width="256" height="252" color-interpolation-filters="sRGB" filterUnits="userSpaceOnUse">
      <feFlood flood-opacity="0" result="BackgroundImageFix"/>
      <feColorMatrix in="SourceAlpha" result="hardAlpha" values="0 0 0 0 0 0 0 0 0 0 0 0 0 0 0 0 0 0 127 0"/>
      <feOffset dy="16"/>
      <feGaussianBlur stdDeviation="12"/>
      <feComposite in2="hardAlpha" operator="out"/>
      <feColorMatrix values="0 0 0 0 0.31 0 0 0 0 0.22 0 0 0 0 0.16 0 0 0 0.18 0"/>
      <feBlend in2="BackgroundImageFix" result="effect1_dropShadow_0_1"/>
      <feBlend in="SourceGraphic" in2="effect1_dropShadow_0_1" result="shape"/>
    </filter>
  </defs>

  <rect width="320" height="400" rx="34" fill="url(#bg)"/>
  <rect width="320" height="400" rx="34" fill="url(#glow)"/>

  <g filter="url(#shadow)">
    <ellipse cx="118" cy="276" rx="88" ry="84" fill="#EFE2D7"/>
    <ellipse cx="118" cy="276" rx="78" ry="72" fill="#FFF6EE"/>

    <path d="M198 120 184 164c18-6 36-6 54 0l-14-44H198Z" fill="url(#bucket)"/>
    <rect x="186" y="150" width="52" height="78" rx="14" fill="url(#bucket)"/>
    <path d="M188 152c18 7 33 7 48 0" opacity=".28" stroke="#FCFCFC" stroke-linecap="round" stroke-width="6"/>
    <path d="m190 134 11-28m12 20 5-30m10 22 18-28m-2 34 28-24m-40 46 20-34" stroke="url(#fries)" stroke-linecap="round" stroke-width="12"/>

    <path d="M70 255c0-31 20-55 50-60 31-5 61 12 74 42l-18 8c-4-10-11-18-22-24-17-9-38-8-53 4-9 7-15 17-18 31l-13-1Z" fill="#75A13C"/>
    <path d="M73 265c0-8 4-13 11-15l84-19c7-2 13 1 15 8l3 15c1 7-2 13-9 15l-86 23c-7 2-14-2-16-9l-2-18Z" fill="url(#patty)"/>
    <path d="M72 248c0-10 7-17 16-17h71c9 0 16 7 16 17v14c0 9-7 16-16 16H88c-9 0-16-7-16-16v-14Z" fill="url(#bunTop)"/>
    <path d="M84 244c0-4 3-7 7-7h58c4 0 7 3 7 7s-3 7-7 7H91c-4 0-7-3-7-7Z" fill="#F3C46A" opacity=".7"/>
    <path d="M89 285c0-7 5-12 12-12h57c7 0 12 5 12 12v16c0 7-5 12-12 12h-57c-7 0-12-5-12-12v-16Z" fill="url(#bunBottom)"/>
    <path d="M86 268h76l-9 13H95l-9-13Z" fill="#F0C83A"/>
    <path d="M97 260c10-6 18-6 25 0 8 6 16 6 24 0 10-7 18-7 26-1-8 12-20 18-37 18-17 0-30-6-38-17Z" fill="#6CA03A"/>
    <path d="M65 257c11-11 22-11 34 0 11 11 22 11 33 0 11-11 22-11 34 0" opacity=".4" stroke="#FFFFFF" stroke-linecap="round" stroke-width="5"/>

    <path d="M250 288c18 0 31 14 31 18-18 8-41 9-57 0 2-9 11-18 26-18Z" fill="#E3C65A"/>
    <circle cx="251" cy="303" r="6" fill="#E9E19E"/>
  </g>
</svg>
